/* XPM */
static const char * adsr_xpm[] = {
"18 18 37 1",
" 	c None",
".	c #E5E4E8",
"+	c #8F8F8F",
"@	c #EFEFEF",
"#	c #787878",
"$	c #000000",
"%	c #2F2F2F",
"&	c #5E5E5E",
"*	c #BFBFBF",
"=	c #303030",
"-	c #EAE9EC",
";	c #080808",
">	c #2E2E2E",
",	c #0A0A0A",
"'	c #737373",
")	c #7F7F7F",
"!	c #7C7C7C",
"~	c #707070",
"{	c #323232",
"]	c #3B3B3B",
"^	c #505050",
"/	c #9F9F9F",
"(	c #E0E0E0",
"_	c #3F3F3F",
":	c #6B6B6B",
"<	c #6F6F6F",
"[	c #070707",
"}	c #E7E7E7",
"|	c #202020",
"1	c #DFDFDF",
"2	c #101010",
"3	c #CFCFCF",
"4	c #AFAFAF",
"5	c #282828",
"6	c #383838",
"7	c #181818",
"8	c #D7D7D7",
"..................",
"....+@............",
"...#$%............",
"...&$$*...........",
"...=$$=-..........",
"..@$;>$+..........",
"..*$=*$,'))))!@...",
"..+$~.{$$$$$$$]...",
"..^$/.(_:)))<$[}..",
"..|$1........^$~..",
".}$2.........3$2-.",
".4$^..........=$+.",
".~$)..........4$5.",
".6$4...........7$.",
".2$@...........+$.",
"...............-..",
"..................",
"@.8.............@."};
