/* XPM */
static const char * exclamation_xpm[] = {
"18 18 4 1",
" 	c None",
".	c #E5E4E8",
"+	c #A64C4C",
"@	c #A6A6A6",
"..................",
"..................",
"........++........",
".......++++.......",
".......++++.......",
".......++++.......",
".......++++.......",
".......++++.......",
".......++++.......",
".......@++@.......",
"........++........",
"..................",
"........++........",
".......++++.......",
".......++++.......",
"........++........",
"..................",
".................."};
