/* XPM */
static const char * disk_xpm[] = {
"18 18 3 1",
" 	c None",
".	c #4D4D4D",
"+	c #A6A64D",
"                  ",
"                  ",
"  ..............  ",
"  .+.        . .  ",
"  .+.        ...  ",
"  .+.        .+.  ",
"  .+.        .+.  ",
"  .+.        .+.  ",
"  .+.        .+.  ",
"  .++........++.  ",
"  .++++++++++++.  ",
"  .++.........+.  ",
"  .++......  .+.  ",
"  .++......  .+.  ",
"  .++......  .+.  ",
"   .............  ",
"                  ",
"                  "};
