/* XPM */
static const char * filter_xpm[] = {
"18 18 49 1",
" 	c None",
".	c #E5E4E8",
"+	c #6F8AA5",
"@	c #395679",
"#	c #405F82",
"$	c #3B597B",
"%	c #3E5A7C",
"&	c #869BB0",
"*	c #647B9A",
"=	c #526D8C",
"-	c #405E80",
";	c #405C7E",
">	c #8798B3",
",	c #DAC9C2",
"'	c #6B82A1",
")	c #536D8D",
"!	c #3F5E81",
"~	c #435F81",
"{	c #3A587A",
"]	c #CCC6C7",
"^	c #DAC2C7",
"/	c #536F8F",
"(	c #3F5C7F",
"_	c #456181",
":	c #647C9C",
"<	c #8A95AA",
"[	c #7186A5",
"}	c #3E5C7E",
"|	c #466182",
"1	c #5F7693",
"2	c #476185",
"3	c #7893AE",
"4	c #647F9E",
"5	c #476383",
"6	c #7891A8",
"7	c #446284",
"8	c #7288A8",
"9	c #6883A2",
"0	c #3B5879",
"a	c #4B6585",
"b	c #436183",
"c	c #728DA8",
"d	c #6480A0",
"e	c #446182",
"f	c #375477",
"g	c #496585",
"h	c #456081",
"i	c #445F80",
"j	c #5D728F",
"..................",
"..................",
"..................",
"..................",
".+@############$%.",
"..&@........*=-;..",
"...>@.....,')!~...",
"....+{]..^'/(_....",
".....:%<.[/}|&....",
"......1234-56.....",
".......7890a......",
".......7890a......",
".......bcd0a......",
".......!e_fa......",
".......gh_ij......",
"..................",
"..................",
".................."};
