/* XPM */
static const char * help_xpm[] = {
"18 18 46 1",
" 	c None",
".	c #B7B7B7",
"+	c #AEAEAE",
"@	c #353535",
"#	c #090909",
"$	c #000000",
"%	c #080808",
"&	c #323232",
"*	c #A6A6A6",
"=	c #8B8B8B",
"-	c #0D0D0D",
";	c #010101",
">	c #838383",
",	c #0F0F0F",
"'	c #020202",
")	c #898989",
"!	c #B9B9B9",
"~	c #252525",
"{	c #0E0E0E",
"]	c #8F8F8F",
"^	c #575757",
"/	c #797979",
"(	c #808080",
"_	c #C9C9C9",
":	c #5C5C5C",
"<	c #707070",
"[	c #222222",
"}	c #CFCFCF",
"|	c #3E3E3E",
"1	c #161616",
"2	c #BCBCBC",
"3	c #313131",
"4	c #C0C0C0",
"5	c #858585",
"6	c #262626",
"7	c #484848",
"8	c #9B9B9B",
"9	c #929292",
"0	c #606060",
"a	c #676767",
"b	c #C3C3C3",
"c	c #A8A8A8",
"d	c #ACACAC",
"e	c #B8B8B8",
"f	c #A4A4A4",
"g	c #7F7F7F",
"                  ",
"        ..        ",
"     +@#$$%&*     ",
"    =$$$#-;$$>    ",
"    ,$')  !~${    ",
"   ]$$^    /$$(   ",
"     _     :$$]   ",
"          <$$[    ",
"        }|$$12    ",
"        3$$[4     ",
"       5$$6       ",
"       7$$8       ",
"       90a        ",
"       bcd        ",
"       7$$e       ",
"       7$$e       ",
"       f/g        ",
"                  "};
