/* XPM */
static const char * info_xpm[] = {
"18 18 47 1",
" 	c None",
".	c #CBD7E7",
"+	c #6B90BC",
"@	c #6C90BC",
"#	c #D0DCEA",
"$	c #82A1C6",
"%	c #547EB1",
"&	c #527CB0",
"*	c #8EAACC",
"=	c #9DB5D3",
"-	c #507BAF",
";	c #A5BBD6",
">	c #B3C7DD",
",	c #B6C9DE",
"'	c #9EB6D3",
")	c #98B2D1",
"!	c #A0B8D5",
"~	c #9AB4D2",
"{	c #C2D1E4",
"]	c #5C84B5",
"^	c #517BAF",
"/	c #5780B2",
"(	c #4D79AD",
"_	c #9AB3D1",
":	c #91ACCE",
"<	c #6C90BD",
"[	c #5D84B5",
"}	c #567FB2",
"|	c #9FB7D4",
"1	c #97B1D1",
"2	c #97B1D0",
"3	c #98B1D1",
"4	c #A0B7D4",
"5	c #B7C9DF",
"6	c #7A9BC3",
"7	c #5B83B4",
"8	c #5A82B4",
"9	c #7D9DC4",
"0	c #BBCCE0",
"a	c #557EB1",
"b	c #5D85B5",
"c	c #537DB1",
"d	c #6389B8",
"e	c #7698C1",
"f	c #688EBB",
"g	c #688DBA",
"h	c #7B9CC4",
"                  ",
"                  ",
"       .+@#       ",
"       $%&*       ",
"       =--;       ",
"        >,        ",
"      ')!~{       ",
"      ]^/(_       ",
"      :<[}|       ",
"       1/}|       ",
"       2/}|       ",
"       2/}|       ",
"       3/}4       ",
"      567890      ",
"      [a[bcd      ",
"      ef++gh      ",
"                  ",
"                  "};
