/* XPM */
static const char * left_xpm[] = {
"18 18 134 2",
"  	c None",
". 	c #D54908",
"+ 	c #D44D0E",
"@ 	c #D35010",
"# 	c #D64A09",
"$ 	c #DA540B",
"% 	c #EA6714",
"& 	c #ED5305",
"* 	c #DC4A05",
"= 	c #DD5F11",
"- 	c #E6721F",
"; 	c #E8792A",
"> 	c #EC5508",
", 	c #E45106",
"' 	c #D56516",
") 	c #E2701B",
"! 	c #E67426",
"~ 	c #E97F33",
"{ 	c #E95309",
"] 	c #B84009",
"^ 	c #C44C16",
"/ 	c #C64C15",
"( 	c #C04913",
"_ 	c #BF430C",
": 	c #B94B15",
"< 	c #DD4F06",
"[ 	c #C85E16",
"} 	c #D3691B",
"| 	c #E16E1B",
"1 	c #E67527",
"2 	c #E98033",
"3 	c #F0762A",
"4 	c #F77B30",
"5 	c #F87F38",
"6 	c #F87C38",
"7 	c #F57833",
"8 	c #F57A2C",
"9 	c #EE5908",
"0 	c #CC4A10",
"a 	c #CF4E03",
"b 	c #C35305",
"c 	c #C65F15",
"d 	c #CF671A",
"e 	c #E16E1A",
"f 	c #E67424",
"g 	c #E97E30",
"h 	c #EC863E",
"i 	c #EF8C49",
"j 	c #F29450",
"k 	c #F3944F",
"l 	c #F08F4B",
"m 	c #ED8840",
"n 	c #E26F22",
"o 	c #D14707",
"p 	c #C14C01",
"q 	c #BE5100",
"r 	c #C25502",
"s 	c #C55C0F",
"t 	c #C9641A",
"u 	c #D86B1A",
"v 	c #E5711C",
"w 	c #E67728",
"x 	c #E97F31",
"y 	c #EB8439",
"z 	c #ED863E",
"A 	c #EE843D",
"B 	c #EB8139",
"C 	c #EA8033",
"D 	c #DC6B1A",
"E 	c #D35013",
"F 	c #BC5200",
"G 	c #BD4B00",
"H 	c #BE4F00",
"I 	c #C35708",
"J 	c #C55F12",
"K 	c #CC661A",
"L 	c #DB6C1A",
"M 	c #E4721C",
"N 	c #E57023",
"O 	c #E7792A",
"P 	c #E87B2E",
"Q 	c #E8792D",
"R 	c #E7782A",
"S 	c #E67626",
"T 	c #DB6717",
"U 	c #D14F11",
"V 	c #B55200",
"W 	c #C05201",
"X 	c #C45808",
"Y 	c #C65F14",
"Z 	c #CB651A",
"` 	c #D4681A",
" .	c #DC6C1B",
"..	c #E36F1D",
"+.	c #E3721E",
"@.	c #E3701F",
"#.	c #E26F1E",
"$.	c #DE6D1B",
"%.	c #C95E14",
"&.	c #D14D0E",
"*.	c #AA4C00",
"=.	c #BE5001",
"-.	c #C35506",
";.	c #C45C0E",
">.	c #BC5E0C",
",.	c #C0610B",
"'.	c #C1610A",
").	c #C0600A",
"!.	c #BD5E0A",
"~.	c #AF5402",
"{.	c #CE4D10",
"].	c #A65000",
"^.	c #BC5000",
"/.	c #BD4F00",
"(.	c #C15100",
"_.	c #C25606",
":.	c #AA5200",
"<.	c #9A4910",
"[.	c #964815",
"}.	c #974614",
"|.	c #964814",
"1.	c #974913",
"2.	c #99491C",
"3.	c #A44E00",
"4.	c #B74F00",
"5.	c #BD5000",
"6.	c #BE4E00",
"7.	c #AA5400",
"8.	c #A44B00",
"9.	c #AF5000",
"0.	c #B65200",
"a.	c #AC5700",
"b.	c #A34D04",
"c.	c #A44D05",
"                                    ",
"                                    ",
"              . + @                 ",
"            # $ % &                 ",
"          * = - ; >                 ",
"        , ' ) ! ~ { ] ^ / ( _ :     ",
"      < [ } | 1 2 3 4 5 6 7 8 9 0   ",
"    a b c d e f g h i j k l m n o   ",
"  p q r s t u v w x y z A B C D E   ",
"  F G H I J K L M N O P Q R S T U   ",
"    V H W X Y Z `  ...+.@.#.$.%.&.  ",
"      *.H =.-.;.Y >.,.'.).).!.~.{.  ",
"        ].^./.(._.:.<.[.}.|.1.2.    ",
"          3.4.5.6.7.                ",
"            8.9.0.a.                ",
"              8.b.c.                ",
"                                    ",
"                                    "};
