/* XPM */
static const char * lfo_xpm[] = {
"18 18 33 1",
" 	c None",
".	c #E5E4E8",
"+	c #221100",
"@	c #A9A29C",
"#	c #423426",
"$	c #261505",
"%	c #3C2D1E",
"&	c #968E86",
"*	c #FFFFFF",
"=	c #B1ABA6",
"-	c #796F65",
";	c #7D736A",
">	c #A09992",
",	c #514437",
"'	c #DEDCDA",
")	c #DEDBD9",
"!	c #493B2D",
"~	c #291909",
"{	c #281707",
"]	c #271606",
"^	c #DFDDDB",
"/	c #DDDAD8",
"(	c #4F4134",
"_	c #A49D97",
":	c #7D7369",
"<	c #786E64",
"[	c #ACA6A0",
"}	c #AFA9A3",
"|	c #9B938C",
"1	c #3C2D1F",
"2	c #251404",
"3	c #3F3022",
"4	c #A29B94",
"..................",
"..................",
"..................",
"..................",
"..................",
".++...++++.@#$%&..",
".++...++**=+-.;+>.",
".++...++**,+'.)+!.",
".++...++**~+...+{.",
".++...++++]+...+~.",
".++...++..!+^./+(.",
".++...++.._+:.<+[.",
".++++}++...|1234..",
"..................",
"..................",
"..................",
"..................",
".................."};
