/* XPM */
static const char * midiport_xpm[] = {
"18 18 70 1",
" 	c None",
".	c #19192C",
"+	c #C1BFC4",
"@	c #CFCFEB",
"#	c #D6D2FA",
"$	c #C9C9E5",
"%	c #CECDEB",
"&	c #CCCBE9",
"*	c #DAD8F8",
"=	c #C7C6E6",
"-	c #D9D8F5",
";	c #CBCBE8",
">	c #D0D0EA",
",	c #CBCAEA",
"'	c #D6D4F3",
")	c #CBC8F0",
"!	c #D8D5F6",
"~	c #D1CEF8",
"{	c #CCC9F3",
"]	c #C5C4E7",
"^	c #C4C3E1",
"/	c #C5C5DF",
"(	c #C5C5E1",
"_	c #D8D6F8",
":	c #D5D2F6",
"<	c #CDC9F5",
"[	c #D1CDFB",
"}	c #C9C5F6",
"|	c #D6D3F9",
"1	c #D2D0F3",
"2	c #D2D2EE",
"3	c #CECFE4",
"4	c #D3CFF8",
"5	c #D1CEF9",
"6	c #CFCBFB",
"7	c #D1CDFC",
"8	c #D6D2FE",
"9	c #C0BDEA",
"0	c #DADBEF",
"a	c #C4C5DA",
"b	c #C8C5F0",
"c	c #CFCCF4",
"d	c #D1CDF9",
"e	c #D2CDFC",
"f	c #D3CFFC",
"g	c #C4C1EE",
"h	c #D3D4E8",
"i	c #DBDAFC",
"j	c #C6C3EE",
"k	c #C9C5F1",
"l	c #D1CDFA",
"m	c #C8C5F4",
"n	c #D5D2FD",
"o	c #D2D1F3",
"p	c #D5D5F1",
"q	c #15162A",
"r	c #BABAD4",
"s	c #C9C6F1",
"t	c #C5C2ED",
"u	c #CCC9F6",
"v	c #C1BEE9",
"w	c #C0C0DA",
"x	c #CBCAEC",
"y	c #C0C0DC",
"z	c #CACAE6",
"A	c #CBCBE7",
"B	c #CFD0E5",
"C	c #D2D3E7",
"D	c #CDCEE3",
"E	c #C8C9DE",
"                  ",
"                  ",
"       ....+      ",
"    +..+..+..     ",
"    .+@#..#$+.    ",
"   .+%&*..=-;+.   ",
"   .>,')!~{]^/.+  ",
"  .+(_:<[}|1#2+.  ",
"  .3..456789..0.  ",
"  .a..bcdefg..h.  ",
"  .+@ijk#lmnop+.  ",
"   qr..stuv..w.   ",
"   .+..#..x..+.   ",
"    .+yz..#A+.+   ",
"     ..BCDE..+    ",
"       ....       ",
"                  ",
"                  "};
