/* XPM */
static const char * midi_xpm[] = {
"18 18 99 2",
"  	g #FFFFFF",
". 	g #DCDCDC",
"+ 	g #A8A8A8",
"@ 	g #A9A9A9",
"# 	g #A6A6A6",
"$ 	g #D2D2D2",
"% 	g #E0E0E0",
"& 	g #AAAAAA",
"* 	g #E9E9E9",
"= 	g #B9B9B9",
"- 	g #A5A5A5",
"; 	g #A2A2A2",
"> 	g #B3B3B3",
", 	g #F2F2F2",
"' 	g #B5B5B5",
") 	g #C2C2C2",
"! 	g #8B8B8B",
"~ 	g #000000",
"{ 	g #404040",
"] 	g #050505",
"^ 	g #BEBEBE",
"/ 	g #393939",
"( 	g #949494",
"_ 	g #383838",
": 	g #3B3B3B",
"< 	g #888888",
"[ 	g #828282",
"} 	g #101010",
"| 	g #717171",
"1 	g #666666",
"2 	g #262626",
"3 	g #A3A3A3",
"4 	g #070707",
"5 	g #C5C5C5",
"6 	g #CDCDCD",
"7 	g #868686",
"8 	g #727272",
"9 	g #3A3A3A",
"0 	g #3E3E3E",
"a 	g #898989",
"b 	g #BBBBBB",
"c 	g #171717",
"d 	g #929292",
"e 	g #232323",
"f 	g #A4A4A4",
"g 	g #080808",
"h 	g #C0C0C0",
"i 	g #A1A1A1",
"j 	g #777777",
"k 	g #3C3C3C",
"l 	g #161616",
"m 	g #9C9C9C",
"n 	g #8C8C8C",
"o 	g #242424",
"p 	g #0A0A0A",
"q 	g #BCBCBC",
"r 	g #6A6A6A",
"s 	g #BFBFBF",
"t 	g #8A8A8A",
"u 	g #8D8D8D",
"v 	g #090909",
"w 	g #2D2D2D",
"x 	g #6E6E6E",
"y 	g #858585",
"z 	g #B0B0B0",
"A 	g #0D0D0D",
"B 	g #989898",
"C 	g #878787",
"D 	g #1E1E1E",
"E 	g #A0A0A0",
"F 	g #303030",
"G 	g #111111",
"H 	g #3D3D3D",
"I 	g #282828",
"J 	g #767676",
"K 	g #373737",
"L 	g #4F4F4F",
"M 	g #D0D0D0",
"N 	g #5F5F5F",
"O 	g #B6B6B6",
"P 	g #C7C7C7",
"Q 	g #595959",
"R 	g #D9D9D9",
"S 	g #808080",
"T 	g #4D4D4D",
"U 	g #494949",
"V 	g #4C4C4C",
"W 	g #525252",
"X 	g #7C7C7C",
"Y 	g #757575",
"Z 	g #646464",
"` 	g #676767",
" .	g #686868",
"..	g #696969",
"+.	g #656565",
"@.	g #9B9B9B",
"#.	g #434343",
"$.	g #6D6D6D",
"%.	g #F0F0F0",
"                                    ",
"                                    ",
"                                    ",
". + @ + + # $ % & * = - + ; > , ' ) ",
"! ~ ~ ~ ~ ~ { - ] ^ / ~ ~ ~ ~ ( _ : ",
"< ~ [ } | 1 2 3 4 5 6 ' = 7 ~ 8 9 0 ",
"a ~ b c 3 d e f g h 8 i   5 ~ j k 0 ",
"a ~ > l m n o - p q e r   s ~ j k 0 ",
"t ~ > l m u o 3 v s w x   q ~ j 9 0 ",
"y ~ z A B C D E ~ s F G H I ~ J K / ",
"+ L M N h O x P Q R S T U V W > X Y ",
"> Z ` ` Z  .1 ..1 +.1 1 `  .` r Z < ",
"y ~ ~ ~ ~ ~ ~ ~ ~ ~ ~ ~ ~ ~ ~ ~ ~ / ",
"@.{ #.#.#.#.#.#.#.#.#.#.#.#.#.#.{ $.",
"%.%.%.%.%.%.%.%.%.%.%.%.%.%.%.%.%.%.",
"                                    ",
"                                    ",
"                                    "};
