/* XPM */
static const char * openfolder_xpm[] = {
"18 18 5 1",
" 	c None",
".	c #4D4D4D",
"+	c #FFFF4D",
"@	c #FFFFFF",
"#	c #A6A64D",
"                  ",
"                  ",
"          ...     ",
"         .   . .  ",
"              ..  ",
"  ...        ...  ",
" .+@+.......      ",
" .@+@+@+@+@.      ",
" .+@+@+@+@+.      ",
" .@+@+........... ",
" .+@+.#########.  ",
" .@+.#########.   ",
" .+.#########.    ",
" ..#########.     ",
" ...........      ",
"                  ",
"                  ",
"                  "};
