/* XPM */
static const char * right_xpm[] = {
"18 18 134 2",
"  	c None",
". 	c #D35010",
"+ 	c #D44D0E",
"@ 	c #D54908",
"# 	c #ED5305",
"$ 	c #EA6714",
"% 	c #DA540B",
"& 	c #D64A09",
"* 	c #EC5508",
"= 	c #E8792A",
"- 	c #E6721F",
"; 	c #DD5F11",
"> 	c #DC4A05",
", 	c #B94B15",
"' 	c #BF430C",
") 	c #C04913",
"! 	c #C64C15",
"~ 	c #C44C16",
"{ 	c #B84009",
"] 	c #E95309",
"^ 	c #E97F33",
"/ 	c #E67426",
"( 	c #E2701B",
"_ 	c #D56516",
": 	c #E45106",
"< 	c #CC4A10",
"[ 	c #EE5908",
"} 	c #F57A2C",
"| 	c #F57833",
"1 	c #F87C38",
"2 	c #F87F38",
"3 	c #F77B30",
"4 	c #F0762A",
"5 	c #E98033",
"6 	c #E67527",
"7 	c #E16E1B",
"8 	c #D3691B",
"9 	c #C85E16",
"0 	c #DD4F06",
"a 	c #D14707",
"b 	c #E26F22",
"c 	c #ED8840",
"d 	c #F08F4B",
"e 	c #F3944F",
"f 	c #F29450",
"g 	c #EF8C49",
"h 	c #EC863E",
"i 	c #E97E30",
"j 	c #E67424",
"k 	c #E16E1A",
"l 	c #CF671A",
"m 	c #C65F15",
"n 	c #C35305",
"o 	c #CF4E03",
"p 	c #D35013",
"q 	c #DC6B1A",
"r 	c #EA8033",
"s 	c #EB8139",
"t 	c #EE843D",
"u 	c #ED863E",
"v 	c #EB8439",
"w 	c #E97F31",
"x 	c #E67728",
"y 	c #E5711C",
"z 	c #D86B1A",
"A 	c #C9641A",
"B 	c #C55C0F",
"C 	c #C25502",
"D 	c #BE5100",
"E 	c #C14C01",
"F 	c #D14F11",
"G 	c #DB6717",
"H 	c #E67626",
"I 	c #E7782A",
"J 	c #E8792D",
"K 	c #E87B2E",
"L 	c #E7792A",
"M 	c #E57023",
"N 	c #E4721C",
"O 	c #DB6C1A",
"P 	c #CC661A",
"Q 	c #C55F12",
"R 	c #C35708",
"S 	c #BE4F00",
"T 	c #BD4B00",
"U 	c #BC5200",
"V 	c #D14D0E",
"W 	c #C95E14",
"X 	c #DE6D1B",
"Y 	c #E26F1E",
"Z 	c #E3701F",
"` 	c #E3721E",
" .	c #E36F1D",
"..	c #DC6C1B",
"+.	c #D4681A",
"@.	c #CB651A",
"#.	c #C65F14",
"$.	c #C45808",
"%.	c #C05201",
"&.	c #B55200",
"*.	c #CE4D10",
"=.	c #AF5402",
"-.	c #BD5E0A",
";.	c #C0600A",
">.	c #C1610A",
",.	c #C0610B",
"'.	c #BC5E0C",
").	c #C45C0E",
"!.	c #C35506",
"~.	c #BE5001",
"{.	c #AA4C00",
"].	c #99491C",
"^.	c #974913",
"/.	c #964814",
"(.	c #974614",
"_.	c #964815",
":.	c #9A4910",
"<.	c #AA5200",
"[.	c #C25606",
"}.	c #C15100",
"|.	c #BD4F00",
"1.	c #BC5000",
"2.	c #A65000",
"3.	c #AA5400",
"4.	c #BE4E00",
"5.	c #BD5000",
"6.	c #B74F00",
"7.	c #A44E00",
"8.	c #AC5700",
"9.	c #B65200",
"0.	c #AF5000",
"a.	c #A44B00",
"b.	c #A44D05",
"c.	c #A34D04",
"                                    ",
"                                    ",
"                . + @               ",
"                # $ % &             ",
"                * = - ; >           ",
"    , ' ) ! ~ { ] ^ / ( _ :         ",
"  < [ } | 1 2 3 4 5 6 7 8 9 0       ",
"  a b c d e f g h i j k l m n o     ",
"  p q r s t u v w x y z A B C D E   ",
"  F G H I J K L M N O P Q R S T U   ",
"  V W X Y Z `  ...+.@.#.$.%.S &.    ",
"  *.=.-.;.;.>.,.'.#.).!.~.S {.      ",
"    ].^./.(._.:.<.[.}.|.1.2.        ",
"                3.4.5.6.7.          ",
"                8.9.0.a.            ",
"                b.c.a.              ",
"                                    ",
"                                    "};
