/* XPM */
static const char * sine_xpm[] = {
"18 18 129 2",
"  	c None",
". 	c #EAEAEC",
"+ 	c #EAE9EC",
"@ 	c #EBEAEC",
"# 	c #EDECED",
"$ 	c #DFDFE6",
"% 	c #BFBFD4",
"& 	c #C8C8DA",
"* 	c #D8D7E1",
"= 	c #404087",
"- 	c #14146A",
"; 	c #11116B",
"> 	c #9C9CBF",
", 	c #E0DFE7",
"' 	c #414188",
") 	c #060765",
"! 	c #BDC1D2",
"~ 	c #575B95",
"{ 	c #090966",
"] 	c #C9CADA",
"^ 	c #A4A4C4",
"/ 	c #000060",
"( 	c #C2C1D5",
"_ 	c #F2F1ED",
": 	c #DBDCE4",
"< 	c #212073",
"[ 	c #5F619A",
"} 	c #E8E7EB",
"| 	c #E5E5E9",
"1 	c #32337F",
"2 	c #5C5C98",
"3 	c #EBEBEE",
"4 	c #F1F0F1",
"5 	c #F3F5F0",
"6 	c #9598BA",
"7 	c #C9C9DA",
"8 	c #B3B4CB",
"9 	c #020362",
"0 	c #B6B6CF",
"a 	c #F6F5F4",
"b 	c #F1F0F2",
"c 	c #F1F2F1",
"d 	c #E2E4E7",
"e 	c #2A2B7B",
"f 	c #525293",
"g 	c #EEEEEE",
"h 	c #363880",
"i 	c #46468A",
"j 	c #F2F2F1",
"k 	c #F1F1F2",
"l 	c #F1F1F0",
"m 	c #FAF9F4",
"n 	c #8A8BB2",
"o 	c #000061",
"p 	c #EBEBEC",
"q 	c #EDEDEE",
"r 	c #080866",
"s 	c #9D9FC1",
"t 	c #F9F8F6",
"u 	c #F3F3F4",
"v 	c #F3F2F3",
"w 	c #F5F4F2",
"x 	c #CECDD2",
"y 	c #070766",
"z 	c #565894",
"A 	c #EFEEEF",
"B 	c #EBEAEB",
"C 	c #EBEBED",
"D 	c #EEECED",
"E 	c #9D9DBE",
"F 	c #1F1F73",
"G 	c #B5B8B3",
"H 	c #B1B0B2",
"I 	c #B0B0B0",
"J 	c #B0B0B1",
"K 	c #B0B1B0",
"L 	c #B9B9B4",
"M 	c #6C6CA0",
"N 	c #050564",
"O 	c #A8AAAD",
"P 	c #B3B2B0",
"Q 	c #B1B0AE",
"R 	c #1D1E6F",
"S 	c #EFEEF0",
"T 	c #EBEAED",
"U 	c #ECECED",
"V 	c #7F82AB",
"W 	c #F2F2F3",
"X 	c #F9F9F6",
"Y 	c #A8AAC6",
"Z 	c #EAEAEB",
"` 	c #5E5E99",
" .	c #2A2C79",
"..	c #E4E4E6",
"+.	c #F2F1F2",
"@.	c #4C4C8F",
"#.	c #30307D",
"$.	c #D8D9E3",
"%.	c #9797BA",
"&.	c #F3F3F3",
"*.	c #F4F4F4",
"=.	c #B7B7D0",
"-.	c #B0B1CC",
";.	c #E7E7E9",
">.	c #5E5E9B",
",.	c #333481",
"'.	c #E1E1E8",
").	c #E9EAEC",
"!.	c #5E5F9A",
"~.	c #2D2D7C",
"{.	c #E6E5E9",
"].	c #EAE9EB",
"^.	c #C2C3CF",
"/.	c #00005F",
"(.	c #7F7FAD",
"_.	c #E9E8EB",
":.	c #A1A1C1",
"<.	c #00005B",
"[.	c #A4A5C2",
"}.	c #E9E8EA",
"|.	c #8483B1",
"1.	c #000059",
"2.	c #4D4F8E",
"3.	c #E5E4E8",
"4.	c #A3A3C3",
"5.	c #7476A4",
"6.	c #9393BA",
"7.	c #E3E3E8",
"8.	c #E9E9EC",
". . + . @ . . + . . . . . . . . . . ",
". + # $ % & . . + . . . . . . . . . ",
"+ # * = - ; > . . . . . . . . . . . ",
". , ' ) ! ~ { ] @ . . . . . . . . . ",
". ^ / ( _ : < [ } . . . . . . . . . ",
"| 1 2 3 4 5 6 / 7 @ . . . . . . . . ",
"8 9 0 a b c d e f g + . . . . . + + ",
"h i j k 4 l m n o , p + + + + + . q ",
"r s t u u v w x y z A B @ C C @ D E ",
"F G H I I J K L M N O P J I J Q L R ",
"S B p T p C T U $ { V m v u W X Y r ",
"+ Z Z + . . . + g `  ...+.k k 4 @.#.",
". + + . . . . . . $./ %.&.k *.=./ -.",
". . . . . . . . . ;.>.,.'.4 ).!.~.{.",
". . . . . . . . . ].^./.(._.:.<.[.+ ",
". . . . . . . . + . }.|.1.2./.2 3.. ",
". . . . . . . . . + @ } 4.5.6.7.p + ",
". . . . . . . . . . + . + _.8.. + + "};
