/* XPM */
static const char * spin_xpm[] = {
"16 22 22 1",
" 	c #663300",
".	c #4D3119",
"+	c #4C3118",
"@	c #4C3018",
"#	c #4B3018",
"$	c #4A2F18",
"%	c #4F3319",
"&	c #4E3219",
"*	c #4C3119",
"=	c #4C3019",
"-	c #CC6600",
";	c #4B3019",
">	c #482C14",
",	c #482C13",
"'	c #482D15",
")	c #472D15",
"!	c #472C15",
"~	c #482C15",
"{	c #4B3119",
"]	c #4A3019",
"^	c #4A3018",
"/	c #4B2F18",
"                ",
"  .+@@#######$  ",
" .%&&&...****## ",
" +&&&.*****==## ",
" #..***-*;;;;;# ",
" #****---;;;;;# ",
" #***-----;;;;# ",
" #**---=---;;;# ",
" #*****==;;;;;# ",
" #*****==;;;;;# ",
" >,,,''''')))!> ",
" >,,,,''')),~~> ",
" #*****=;;;*;;# ",
" #*****=;;;*;;# ",
" #**---=---*;;# ",
" #***-----;*;;# ",
" #****---;;*;;# ",
" #*****-;;;*;;# ",
" $;;==;{;;]=^^$ ",
" $######;#^#^^$ ",
"  /#######^#^$  ",
"                "};
