/* XPM */
static const char * wrench_xpm[] = {
"18 18 35 1",
" 	c None",
".	c #6D6D6E",
"+	c #3A3A3A",
"@	c #6C6B6D",
"#	c #2C2C2C",
"$	c #59595A",
"%	c #434343",
"&	c #393838",
"*	c #464546",
"=	c #3D3B3B",
"-	c #949395",
";	c #444445",
">	c #383737",
",	c #878789",
"'	c #303030",
")	c #686869",
"!	c #353535",
"~	c #333333",
"{	c #3C3C3C",
"]	c #4C4B4B",
"^	c #494848",
"/	c #393939",
"(	c #343434",
"_	c #424242",
":	c #626263",
"<	c #383838",
"[	c #434344",
"}	c #5C5C5C",
"|	c #323232",
"1	c #6F6F70",
"2	c #474747",
"3	c #5E5E5F",
"4	c #373737",
"5	c #464747",
"6	c #404040",
"                  ",
"                  ",
"          .+@     ",
"         .#$      ",
"         %&       ",
"         *=    -  ",
"         ;>   ,'  ",
"        )!~{]^~/  ",
"       )((~+{{_   ",
"      :!<(_       ",
"     .(!([        ",
"    }|((_         ",
"   1(~'2          ",
"  3!4|+           ",
"  +!!5            ",
"  6~6             ",
"                  ",
"                  "};
